<svg width="13" height="11" viewBox="0 0 13 11" fill="none" xmlns="http://www.w3.org/2000/svg">
<path d="M11.875 2.125H6.53063L4.78687 0.381251C4.70574 0.299836 4.6093 0.235279 4.50311 0.1913C4.39691 0.14732 4.28307 0.124788 4.16813 0.125002H0.875C0.642936 0.125002 0.420376 0.217189 0.256282 0.381283C0.0921873 0.545377 0 0.767937 0 1V10.0388C0.000165537 10.2605 0.0883234 10.4731 0.245115 10.6299C0.401906 10.7867 0.614514 10.8748 0.83625 10.875H11.9306C12.1479 10.8748 12.3562 10.7885 12.5098 10.6348C12.6635 10.4812 12.7498 10.2729 12.75 10.0556V3C12.75 2.76794 12.6578 2.54538 12.4937 2.38128C12.3296 2.21719 12.1071 2.125 11.875 2.125ZM0.875 0.875001H4.16813C4.20122 0.875141 4.23292 0.888402 4.25625 0.911876L5.46938 2.125H0.75V1C0.75 0.966849 0.76317 0.935055 0.786612 0.911613C0.810054 0.888171 0.841848 0.875001 0.875 0.875001ZM12 10.0556C12 10.074 11.9927 10.0917 11.9797 10.1047C11.9667 10.1177 11.949 10.125 11.9306 10.125H0.83625C0.813476 10.1247 0.791725 10.1155 0.775619 10.0994C0.759514 10.0833 0.750323 10.0615 0.75 10.0388V2.875H11.875C11.9082 2.875 11.9399 2.88817 11.9634 2.91161C11.9868 2.93506 12 2.96685 12 3V10.0556Z" fill="black"/>
</svg>
