<svg width="334" height="310" viewBox="0 0 334 310" fill="none" xmlns="http://www.w3.org/2000/svg">
<path opacity="0.5" d="M17.8259 105.715C26.8271 74.6745 72.8868 16.2593 89.1389 11.6402C143.208 -0.985179 206.835 -0.315969 243.59 2.64022C289.534 6.33546 338.493 92.7812 320.678 105.715C302.863 118.648 291.612 168.534 327.241 201.791C362.871 235.048 240.042 294.172 190.348 307.105C140.654 320.038 154.719 282.162 61.8941 242.438C-30.9305 202.715 6.57437 144.515 17.8259 105.715Z" fill="#E5BA49"/>
<path opacity="0.5" d="M39.5372 112.916C47.2302 86.3877 86.5956 36.4625 100.486 32.5148C146.697 21.7243 201.076 22.2963 232.489 24.8228C271.755 27.981 313.599 101.863 298.373 112.916C283.147 123.97 273.531 166.605 303.983 195.029C334.434 223.453 229.457 273.984 186.986 285.037C144.514 296.091 156.534 263.719 77.2006 229.769C-2.13302 195.819 29.921 146.077 39.5372 112.916Z" fill="#E5BA49"/>
<path d="M55.2648 118.134C62.0102 94.8728 96.5263 51.0977 108.705 47.6363C149.224 38.1751 196.904 38.6766 224.448 40.8919C258.877 43.661 295.566 108.442 282.216 118.134C268.866 127.825 260.434 165.209 287.134 190.131C313.834 215.053 221.789 259.359 184.549 269.051C147.31 278.743 157.849 250.36 88.2886 220.591C18.7278 190.823 46.8332 147.209 55.2648 118.134Z" fill="#E5BA49"/>
<path d="M118.308 105.927L122.288 85.3699H123.786L129.542 100.494L135.268 85.3699H136.766L140.76 105.927H138.66L135.621 90.2009L130.188 104.577H128.866L123.433 90.2009L120.394 105.927H118.308Z" fill="#152734"/>
<path d="M150.003 85.3699H152.558L160.047 105.927H157.859L156.259 101.522H146.317L144.717 105.927H142.529L150.003 85.3699ZM147.066 99.4665H155.495L151.281 87.8955L147.066 99.4665Z" fill="#152734"/>
<path d="M172.206 85.3699H174.629L167.698 96.6178V105.927H165.642V96.6178L158.726 85.3699H161.149L166.67 94.3712L172.206 85.3699Z" fill="#152734"/>
<path d="M180.891 85.3699H183.446L190.935 105.927H188.747L187.147 101.522H177.205L175.605 105.927H173.417L180.891 85.3699ZM177.954 99.4665H186.383L182.169 87.8955L177.954 99.4665Z" fill="#152734"/>
<path d="M114.35 136.295V115.738H121.149C122.568 115.738 123.899 116.007 125.143 116.546C126.386 117.074 127.477 117.813 128.417 118.763C129.357 119.703 130.091 120.794 130.62 122.037C131.158 123.271 131.427 124.597 131.427 126.017C131.427 127.436 131.158 128.767 130.62 130.011C130.091 131.244 129.357 132.336 128.417 133.285C127.477 134.225 126.386 134.964 125.143 135.503C123.899 136.031 122.568 136.295 121.149 136.295H114.35ZM116.406 134.24H121.149C122.284 134.24 123.346 134.029 124.335 133.608C125.334 133.178 126.21 132.585 126.964 131.832C127.717 131.078 128.305 130.207 128.726 129.218C129.156 128.219 129.372 127.152 129.372 126.017C129.372 124.881 129.156 123.819 128.726 122.83C128.305 121.832 127.712 120.956 126.949 120.202C126.195 119.448 125.324 118.861 124.335 118.44C123.346 118.009 122.284 117.794 121.149 117.794H116.406V134.24Z" fill="#152734"/>
<path d="M134.139 136.295V115.738H146.65V117.794H136.195V124.255H144.844V126.31H136.195V134.24H146.65V136.295H134.139Z" fill="#152734"/>
<path d="M156.558 136.295L149.099 115.738H151.272L157.792 133.711L164.341 115.738H166.514L159.04 136.295H156.558Z" fill="#152734"/>
<path d="M169.597 136.295V115.738H171.653V136.295H169.597Z" fill="#152734"/>
<path d="M107.35 165.296L111.329 144.738H112.827L118.583 159.862L124.31 144.738H125.808L129.802 165.296H127.702L124.662 149.569L119.229 163.945H117.908L112.475 149.569L109.435 165.296H107.35Z" fill="#152734"/>
<path d="M139.045 144.738H141.6L149.089 165.296H146.901L145.3 160.89H135.359L133.758 165.296H131.571L139.045 144.738ZM136.108 158.835H144.536L140.322 147.264L136.108 158.835Z" fill="#152734"/>
<path d="M165.031 144.738V146.794H157.982V165.296H155.927V146.794H148.893V144.738H165.031Z" fill="#152734"/>
<path d="M167.979 165.296V144.738H180.49V146.794H170.035V153.255H178.683V155.31H170.035V163.24H180.49V165.296H167.979Z" fill="#152734"/>
<path d="M183.925 165.296V144.738H190.9C191.996 144.738 192.985 145.007 193.866 145.546C194.747 146.074 195.447 146.794 195.966 147.704C196.484 148.605 196.744 149.618 196.744 150.744C196.744 151.752 196.538 152.667 196.127 153.49C195.716 154.312 195.153 154.992 194.438 155.531C193.734 156.069 192.936 156.426 192.045 156.603L197.067 165.296H194.688L189.74 156.764H185.98V165.296H183.925ZM185.98 154.708H190.723C191.448 154.708 192.109 154.532 192.706 154.18C193.313 153.818 193.792 153.333 194.145 152.726C194.507 152.109 194.688 151.414 194.688 150.641C194.688 149.868 194.507 149.177 194.145 148.57C193.792 147.954 193.313 147.469 192.706 147.117C192.109 146.755 191.448 146.573 190.723 146.573H185.98V154.708Z" fill="#152734"/>
<path d="M200.702 165.296V144.738H202.934L213.786 161.58V144.738H215.841V165.296H213.624L202.758 148.453V165.296H200.702Z" fill="#152734"/>
<path d="M219.813 165.296V144.738H221.869V165.296H219.813Z" fill="#152734"/>
<path d="M241.376 144.738V146.794H234.328V165.296H232.272V146.794H225.238V144.738H241.376Z" fill="#152734"/>
<path d="M256.923 144.738H259.346L252.415 155.986V165.296H250.359V155.986L243.443 144.738H245.866L251.387 153.739L256.923 144.738Z" fill="#152734"/>
<path d="M186.22 172.27V174.326H179.172V192.828H177.116V174.326H170.082V172.27H186.22Z" fill="#152734"/>
<path d="M189.168 192.828V172.27H196.143C197.239 172.27 198.228 172.54 199.109 173.078C199.99 173.607 200.69 174.326 201.209 175.237C201.728 176.137 201.987 177.15 201.987 178.276C201.987 179.284 201.782 180.2 201.371 181.022C200.959 181.844 200.397 182.525 199.682 183.063C198.977 183.602 198.179 183.959 197.288 184.135L202.31 192.828H199.932L194.983 184.297H191.224V192.828H189.168ZM191.224 182.241H195.967C196.691 182.241 197.352 182.065 197.949 181.712C198.556 181.35 199.036 180.865 199.388 180.258C199.75 179.642 199.932 178.947 199.932 178.173C199.932 177.4 199.75 176.71 199.388 176.103C199.036 175.486 198.556 175.002 197.949 174.649C197.352 174.287 196.691 174.106 195.967 174.106H191.224V182.241Z" fill="#152734"/>
<path d="M212.087 172.27H214.642L222.131 192.828H219.943L218.342 188.423H208.401L206.801 192.828H204.613L212.087 172.27ZM209.15 186.367H217.579L213.364 174.796L209.15 186.367Z" fill="#152734"/>
<path d="M225.315 192.828V172.27H227.371V192.828H225.315Z" fill="#152734"/>
<path d="M231.327 192.828V172.27H233.383V190.772H242.825V192.828H231.327Z" fill="#152734"/>
<path fill-rule="evenodd" clip-rule="evenodd" d="M98.6777 99.5932C101.776 97.686 104.67 96.7497 106.854 96.9095L110.093 97.1465L110.253 100.39C110.442 104.224 110.482 110.343 109.991 116.36C109.745 119.37 109.361 122.418 108.775 125.174C108.202 127.875 107.384 130.547 106.15 132.646L105.75 133.326L105.105 133.781C102.905 135.338 101.356 138.243 100.583 141.402C100.209 142.93 100.061 144.354 100.074 145.446C100.08 145.993 100.127 146.395 100.178 146.652C100.189 146.706 100.199 146.747 100.207 146.778C100.88 147.901 100.934 149.091 100.928 149.734C100.92 150.539 100.793 151.371 100.632 152.136C100.308 153.681 99.736 155.47 99.0968 157.225C98.2377 159.584 97.179 162.093 96.2109 164.243C96.9228 164.682 97.7949 165.199 98.8304 165.779L102.03 167.571L100.241 170.773C99.9462 171.301 99.4488 172.799 98.8799 175.393C98.3452 177.831 97.8271 180.84 97.3489 184.054C96.5698 189.291 95.9155 194.943 95.4766 199.3L108.493 204.435C110.629 203.517 113.466 202.629 116.475 202.319C118.674 202.092 121.175 202.158 123.602 202.897C123.869 202.17 124.159 201.479 124.44 200.851C125.485 198.515 126.748 196.334 127.62 194.999L129.681 191.838L132.784 193.986C133.96 194.8 136.033 196.028 138.252 196.947C140.602 197.92 142.45 198.264 143.497 198.089C143.503 198.084 143.815 197.974 144.391 197.32C145.021 196.604 145.697 195.542 146.362 194.205C147.69 191.54 148.696 188.365 149.199 186.28L150.262 181.876L154.35 183.829C156.847 185.022 160.593 187.09 163.776 189.476C165.36 190.664 166.933 192.026 168.146 193.493C169.285 194.872 170.528 196.847 170.528 199.196C170.528 200.879 170.238 202.755 169.944 204.425C169.838 205.03 169.731 205.608 169.627 206.168C169.422 207.277 169.231 208.315 169.081 209.349C168.945 210.291 168.874 211.051 168.86 211.646C169.238 211.417 169.674 211.113 170.159 210.726C171.868 209.365 173.582 207.48 174.616 206.164L175.718 204.761H177.502C179.847 204.761 185.311 205.498 190.808 208.29C194.827 210.331 202.473 213.64 207.442 215.734L216.096 205.216L218.391 204.561L219.007 201.831L226.169 203.448L224.593 210.424L220.313 211.648L209.651 224.605L207.139 223.565C202.746 221.746 192.561 217.415 187.483 214.836C184.27 213.204 181.089 212.494 179.111 212.233C177.904 213.606 176.365 215.17 174.732 216.47C173.597 217.374 172.261 218.276 170.842 218.85C169.474 219.404 167.477 219.869 165.445 219.022C162.787 217.914 161.901 215.467 161.64 213.687C161.382 211.93 161.572 209.977 161.815 208.298C161.985 207.123 162.222 205.839 162.441 204.651C162.537 204.127 162.631 203.622 162.713 203.153C163 201.524 163.178 200.232 163.186 199.261C163.172 199.235 163.076 198.883 162.486 198.17C161.79 197.328 160.722 196.363 159.371 195.35C157.999 194.322 156.469 193.342 155.006 192.489C154.439 194.121 153.744 195.853 152.934 197.478C152.117 199.119 151.111 200.799 149.899 202.174C148.728 203.503 147.037 204.92 144.795 205.316C141.58 205.883 138.064 204.816 135.442 203.73C134.225 203.226 133.055 202.655 131.995 202.083C131.702 202.649 131.412 203.245 131.141 203.849C130.207 205.938 129.794 207.52 129.823 208.296L130.145 216.978L123.695 211.157C122.217 209.824 119.993 209.337 117.228 209.622C114.495 209.904 111.841 210.894 110.318 211.687L108.832 212.462L87.6513 204.106L87.9018 201.366C88.3237 196.752 89.1061 189.565 90.0869 182.973C90.5767 179.681 91.1231 176.489 91.7084 173.82C91.9501 172.718 92.2163 171.615 92.5145 170.589C90.861 169.576 89.769 168.808 89.2643 168.405L86.9775 166.575L88.2531 163.939C89.3936 161.582 91.0212 157.944 92.198 154.713C92.7916 153.083 93.2275 151.672 93.4464 150.629C93.5102 150.325 93.5464 150.094 93.566 149.927C93.2647 149.29 93.0903 148.644 92.9808 148.1C92.8177 147.29 92.743 146.416 92.7325 145.534C92.7113 143.769 92.9445 141.729 93.4512 139.657C94.3808 135.857 96.3873 131.348 100.13 128.343C100.661 127.241 101.165 125.667 101.594 123.648C102.093 121.298 102.443 118.581 102.673 115.762C102.962 112.219 103.055 108.616 103.04 105.54C102.875 105.635 102.704 105.736 102.526 105.846C100.129 107.321 96.8962 109.994 93.161 114.618L87.4494 110.005C91.6041 104.861 95.4423 101.585 98.6777 99.5932ZM93.5838 149.598C93.5848 149.597 93.5867 149.616 93.5864 149.659C93.5826 149.62 93.5827 149.599 93.5838 149.598ZM167.761 212.147C167.761 212.147 167.769 212.145 167.783 212.144C167.768 212.147 167.761 212.148 167.761 212.147Z" fill="#152734"/>
</svg>
