<svg xmlns="http://www.w3.org/2000/svg" fill="none" viewBox="0 0 1563 730"><g opacity=".3"><path stroke="#E5BA49" stroke-width="2" d="M472 247c18.456-94.127 82.498-134.061 113.404-140.845-127.864-11.48-367.959-29.744-305.421-10.958 78.174 23.482 89.081 73.578 90.899 187.86C372.7 397.338 452 349 472 247Z" opacity=".5"/><path stroke="#E5BA49" stroke-width="2" d="M450.439 202.212c14.27-75.257 53.513-105.088 71.351-110.597-73.799-9.322-212.374-24.153-176.279-8.898 45.119 19.068 51.415 59.747 52.464 152.547 1.049 92.8 34.626 61.019 52.464-33.052Z" opacity=".5"/><path stroke="#E5BA49" stroke-width="2" d="M454.467 224.484c17.906-88.552 67.148-123.654 89.531-130.136-92.603-10.969-266.486-28.42-221.194-10.47 56.615 22.437 64.515 70.303 65.832 179.497 1.316 109.194 43.448 71.799 65.831-38.891Z" opacity=".5"/><path stroke="#E5BA49" stroke-width="2" d="M441.564 163.802c3.655-41.988 29.445-57.824 39.26-60.855-40.608-5.13-116.858-13.29-96.996-4.897 24.826 10.493 28.868 32.873 28.868 83.939 0 113.006 21.517 66.255 28.868-18.187ZM350.578 364.463c-62.62-51.662-101.757-15.655-161.246 103.323-44.416 74.09 64.987 83.054 125.24 78.275 95.495-7.306 274.276-30.684 225.432-65.751-61.055-43.834-64.186-115.847-108.02-82.972-43.834 32.876-18.786 18.786-81.406-32.875Z" opacity=".5"/><path stroke="#E5BA49" stroke-width="2" d="M335.209 321.121c-75.997-67.842-149.76 69.673-198.006 156.755-55.962 101.01 69.606 111.67 145.524 105.154C403.049 573.07 673.512 512.865 600 487c-108-38-139.7-185.834-178.163-126.003-24.751 38.501-41.958 0-86.628-39.876Z" opacity=".5"/><path fill="#E5BA49" d="M353.008 399.31c-50.976-42.056-82.837-12.744-131.265 84.112-36.157 60.314 52.904 67.611 101.954 63.721 77.739-5.948 223.278-24.979 183.516-53.526-49.702-35.684-52.251-94.307-87.935-67.544-35.683 26.763-15.293 15.293-66.27-26.763Z" opacity=".5"/><path fill="#E5BA49" d="M355.042 424.736c-41.232-34.016-67.003-10.308-106.173 68.033-29.245 48.785 42.791 54.687 82.464 51.54 62.879-4.81 180.597-20.203 148.436-43.293-40.201-28.863-42.263-76.28-71.125-54.633-28.863 21.647-12.37 12.37-53.602-21.647Z" opacity=".5"/><path fill="#E5BA49" d="M354.184 454.755c-28.484-23.499-46.287-7.121-73.347 46.999-20.203 33.702 29.561 37.78 56.969 35.606 43.438-3.324 124.761-13.958 102.543-29.909-27.772-19.939-29.196-52.696-49.135-37.741-19.939 14.954-8.545 8.545-37.03-14.955Z" opacity=".5"/><path stroke="#E5BA49" stroke-width="2" d="M513.391 209.478c15.029-52.601 73.056-81.406 100.192-89.233C703.86 98.85 899.756 57.312 961.124 62.321c76.706 6.262 87.666 125.24 57.926 147.157-29.747 21.917-48.533 106.454 10.96 162.812 59.49 56.358-145.595 156.551-228.567 178.468-82.972 21.917-59.489-42.269-214.474-109.586-154.984-67.316-92.364-165.943-73.578-231.694Z" opacity=".5"/><path stroke="#E5BA49" stroke-width="2" d="M550.228 224.105C563.037 179.273 607.872 139.671 631 133c76.944-18.235 248.531-38.588 300.836-34.318 65.38 5.337 74.724 106.743 49.368 125.423-25.351 18.681-41.363 90.732 9.341 138.767 50.705 48.035-124.09 133.429-194.807 152.11-70.718 18.68-50.704-36.026-182.799-93.401-132.095-57.375-78.723-141.435-62.711-197.476Z" opacity=".5"/><path stroke="#E5BA49" stroke-width="2" d="M585.51 237.937C596.458 200.451 638.601 158 679.488 138c71.802-23.745 158.889-16.783 204.026-13.175l1.443.116c44.703 3.57 84.896 72.507 67.948 102.444-13.041 23.034-34.397 86.417 8.938 126.581 43.337 40.164-106.057 111.566-166.499 127.185-60.441 15.62-43.335-30.123-156.235-78.096s-67.284-118.26-53.599-165.118ZM1066.48 376.801c-56.1-55.008 8.1-59.582 37.84-109.678 46.97-84.537 125.72 75.833 213.39 68.006 87.67-7.828 23.48 107.495 51.66 141.936 28.18 34.442 61.06 120.544-51.66 211.343-112.72 90.799-320.927 6.262-381.982-32.875-61.054-39.138 48.531-158.116 76.712-178.468 28.18-20.351 78.4-76.376 54.04-100.264Z" opacity=".5"/><path stroke="#E5BA49" stroke-width="2" d="M1101.54 376.114c-34.57-54.328-11.15-38.03 14.44-81.138 40.42-72.745 112.45 75.339 187.89 68.604 75.44-6.736 29.64 86.216 53.89 115.853s52.54 103.73-44.46 181.863c-96.99 78.134-276.16 5.389-328.699-28.289-52.538-33.679 47.999-136.061 72.249-153.574 24.25-17.512 68.76-65.501 44.69-103.319Z" opacity=".5"/><path stroke="#E5BA49" stroke-width="2" d="M1135.92 391.929c-20.63-45.396-28.17-34.132-8.93-68.074 30.37-57.276 107.57 60.457 164.26 55.154 56.7-5.303 22.28 67.884 40.5 91.218 18.22 23.335 39.48 81.673-33.41 143.192-72.89 61.52-207.54 4.243-247.02-22.274-39.49-26.517 36.81-100.852 55.04-114.641 18.22-13.789 43.32-54.321 29.56-84.575Z" opacity=".5"/><path stroke="#E5BA49" stroke-width="2" d="M1177.87 404.801c-14-25.517-34.26-36.708-22.69-56.192 18.26-32.879 92.88 55.99 126.97 52.946 34.1-3.044 15.4 44.364 26.36 57.759 10.96 13.395 17.48 44.733-26.36 80.047s-124.82 2.435-148.56-12.786c-23.75-15.222 10.63-49.719 21.59-57.634 10.96-7.916 37.13-37.819 22.69-64.14Z" opacity=".5"/><path fill="#E5BA49" d="M1211.17 430.712c-9.54-12.492-24.42-39.266-18.17-49.785 9.86-17.751 64.77 51.428 83.18 49.785 18.41-1.644 7.23 21.038 13.15 28.27 5.92 7.232 12.82 25.311-10.85 44.377-23.66 19.066-89.05 3.653-101.87-4.565-12.82-8.218 12.53-40.798 18.45-45.072 5.92-4.273 25.64-10.519 16.11-23.01Z" opacity=".5"/><path fill="#E5BA49" d="M1234.25 442.124c-6.91-9.064-18.28-23.997-13.75-31.63 7.16-12.88 35.46 32.823 48.82 31.63 13.36-1.193 4.6 25.918 8.9 31.166 4.29 5.247 4.62 15.429-12.55 29.263-17.18 13.834-47.26 5.963-56.56 0-9.31-5.963-.77-30.211 3.53-33.311 4.29-3.101 28.53-18.054 21.61-27.118Z" opacity=".5"/><path fill="#E5BA49" d="M1222.37 490.026c-6.01-3.853-.99-15.63 1.65-17.809 38.33-31.676 30.41-21.597 41.39-18.178 8.27 2.577.83 17.307 3.6 20.697 2.77 3.391 1 6.351-10.09 15.29-11.1 8.939-30.54 3.853-36.55 0Z" opacity=".5"/><path fill="#E5BA49" d="M1232.67 481.947c-3.26-2.088-.54-8.469.89-9.651 20.77-17.164 16.48-11.703 22.43-9.85 4.49 1.397.45 9.378 1.95 11.216 1.51 1.837.55 3.441-5.47 8.285-6.01 4.844-16.54 2.088-19.8 0Z" opacity=".5"/><path fill="#E5BA49" d="M1240.34 475.93c-1.21-.774-.2-3.137.33-3.574 7.69-6.356 6.1-4.334 8.31-3.648 1.66.517.16 3.473.72 4.153.56.681.2 1.275-2.03 3.069-2.22 1.793-6.12.773-7.33 0Z" opacity=".5"/><path stroke="#E5BA49" stroke-width="2" d="M303.791 283.283C204.09 253.44 169.19 363.84 109.488 490.429c-28.826 62.909-23.88 23.016-78.156 56.39C-12.088 573.518.94 409.872 12.88 324.712V1.334l155.226 10.358c-.362 15.344 34.106 43.73 97.499 80.557 79.241 46.032 115.081 214.05 38.187 191.034Z" opacity=".5"/><path stroke="#E5BA49" stroke-width="2" d="M276.858 251.736c-79.801-23.887-107.735 64.478-155.521 165.801-23.073 50.352-19.115 18.422-62.556 45.135-34.754 21.369-24.328-109.613-14.77-177.776V26.062l124.243 8.29c-.29 12.282 27.299 35.003 78.039 64.479 63.425 36.844 92.111 171.327 30.565 152.905Z" opacity=".5"/><path stroke="#E5BA49" stroke-width="2" d="M246.311 223.264c-69.733-20.873-94.143 56.343-135.9 144.883-20.161 44-16.703 16.098-54.664 39.44-30.369 18.674-21.258-95.783-12.907-155.346V26.062l108.569 7.245c-.253 10.732 23.855 30.586 68.193 56.343 55.423 32.196 80.49 149.712 26.709 133.614Z" opacity=".5"/><path stroke="#E5BA49" stroke-width="2" d="M225.986 204.32c-63.034-18.868-85.099 50.93-122.845 130.964-18.224 39.773-15.098 14.552-49.412 35.651-27.451 16.88-19.216-86.582-11.667-140.423V26.062l98.139 6.549c-.229 9.7 21.563 27.648 61.642 50.93 50.099 29.104 72.758 135.33 24.143 120.779Z" opacity=".5"/><path stroke="#E5BA49" stroke-width="2" d="M201.741 181.722c-55.043-16.476-74.311 44.474-107.271 114.361-15.914 34.731-13.184 12.707-43.148 31.132-23.972 14.74-16.78-75.606-10.188-122.621V26.063l85.697 5.718c-.2 8.47 18.83 24.143 53.828 44.474 43.747 25.413 63.534 118.174 21.082 105.467Z" opacity=".5"/><path stroke="#E5BA49" stroke-width="2" d="M180.598 162.014c-48.075-14.39-64.903 38.843-93.69 99.883-13.9 30.334-11.516 11.098-37.686 27.19-20.936 12.874-14.656-66.033-8.898-107.096V26.062l74.847 4.995c-.174 7.398 16.446 21.086 47.013 38.843 38.209 22.196 55.491 103.212 18.414 92.114Z" opacity=".5"/><path stroke="#E5BA49" stroke-width="2" d="M158.221 141.157c-40.699-12.182-54.946 32.884-79.317 84.559-11.767 25.68-9.748 9.396-31.904 23.019-17.724 10.899-12.407-55.903-7.533-90.666V26.063l63.365 4.228c-.148 6.263 13.922 17.85 39.8 32.884 32.347 18.79 46.977 87.378 15.589 77.982ZM1064.01 278.284c-45.65 83.989-71.21 13.694-23.74-52.036 8.75-40.539 18.26-80.337 8.22-132.373-10.04-52.037 15.52.913 76.68-37.43 61.17-38.342 110.47-83.988 150.63 109.55 40.17 193.539-62.99 83.989-107.72 52.037-44.73-31.952-73.72 4.397-104.07 60.252Z" opacity=".5"/><path stroke="#E5BA49" stroke-width="2" d="M1074.01 236.126c-38.14 70.144-39.66 18.543 0-36.353 7.31-33.857-4.58-74.201-12.97-117.66s12.97.763 64.07-31.26c51.11-32.022 92.3-70.144 125.86 91.493s-52.63 70.144-90.01 43.459c-37.37-26.685-61.59 3.673-86.95 50.321Z" opacity=".5"/><path fill="#E5BA49" d="M1227.42 128.566c33.05 124.956-48.11 49.23-73.07 27.418-63.23-55.255-36.34 107.928-66.73-84.754-5.61-35.522 8.66.623 42.79-25.55 34.13-26.175 62.75-46.665 97.01 82.886Z" opacity=".5"/><path fill="#E5BA49" d="M1206.83 107.383c25.35 99.096-36.9 39.042-56.04 21.744-48.5-43.82-27.87 85.591-51.18-67.214-4.3-28.17 6.64.495 32.82-20.262 26.17-20.758 48.13-37.007 74.4 65.732Z" opacity=".5"/><path fill="#E5BA49" d="M1190.44 95.08c21.51 84.076-31.3 33.124-47.55 18.448-41.14-37.178-23.64 72.618-43.42-57.026-3.65-23.9 5.64.42 27.84-17.192 22.21-17.61 40.84-31.397 63.13 55.77Z" opacity=".5"/><path stroke="#E5BA49" stroke-width="2" d="M1295.56 152.617c12.48 31.978 14.81 55.376 0 136.492 0 44.457 33.53 12.479 77.99 15.599 44.46 3.12 7.8 72.536 10.14 146.632 2.34 74.096 90.48 88.135 155.21 75.656 64.74-12.48-26.52-200.449-37.44-251.146-10.92-50.698 17.94-202.01-21.83-205.909-39.78-3.9-106.86 38.218-144.3 34.318-37.43-3.9-52.25 16.379-39.77 48.358Z" opacity=".5"/><path stroke="#E5BA49" stroke-width="2" d="M1309.8 148.182c11.81 30.268 20.06 47.77 6.03 124.548 0 42.08 33.58 6.406 75.66 9.359 42.08 2.953 12.6 79.618 14.82 149.752 2.21 70.134 72.55 82.512 133.82 70.7 61.28-11.812-25.1-189.73-35.43-237.716-10.34-47.986 16.98-191.206-20.67-194.897-37.65-3.692-101.14 36.174-136.58 32.482-35.44-3.69-49.46 15.504-37.65 45.772Z" opacity=".5"/><path stroke="#E5BA49" stroke-width="2" d="M1332.21 133.118c8.96 26.996 16.1 46.954 5.46 115.433 0 37.532 35.48 7.947 67.37 10.58 31.9 2.634 22.99 71.159 24.67 133.712 1.68 62.553 41.56 73.448 88 62.912 46.45-10.535-19.02-169.222-26.86-212.022-7.83-42.799 12.87-170.54-15.67-173.832-28.53-3.292-76.66 32.265-103.52 28.972-26.86-3.292-48.4 7.248-39.45 34.245Z" opacity=".5"/><path stroke="#E5BA49" stroke-width="2" d="M1360.71 124.169c7.69 23.188 13.82 40.331 4.69 99.15 0 32.237 30.47 6.825 57.87 9.087 27.39 2.263 19.74 61.12 21.18 114.849 1.44 53.729 35.7 63.086 75.59 54.037s-16.34-145.35-23.07-182.112 11.05-146.481-13.46-149.309c-24.51-2.828-65.84 27.713-88.92 24.885-23.07-2.828-41.57 6.225-33.88 29.413Z" opacity=".5"/><path stroke="#E5BA49" stroke-width="2" d="M1382.75 117.25c6.71 20.243 12.06 35.209 4.09 86.557 0 28.144 26.6 5.959 50.52 7.934 23.92 1.975 17.23 53.358 18.49 100.263 1.26 46.906 31.17 55.075 65.99 47.175 34.83-7.9-14.26-126.891-20.14-158.984-5.87-32.093 9.65-127.879-11.75-130.348-21.4-2.468-57.48 24.194-77.62 21.725-20.14-2.469-36.3 5.435-29.58 25.678Z" opacity=".5"/><path stroke="#E5BA49" stroke-width="2" d="M1398.4 107.316c5.31 16.016 14.22 34.132 7.91 74.757 0 22.265 25.54-1.563 44.46 0 18.92 1.562 22.4 40.288 23.4 77.398.99 37.109 26.26 45.247 53.81 38.997 27.56-6.25-30.82-100.14-35.47-125.53-4.64-25.391 7.64-101.171-9.29-103.124-16.93-1.953-45.48 19.14-61.41 17.187-15.94-1.953-28.72 4.3-23.41 20.315Z" opacity=".5"/><path stroke="#E5BA49" stroke-width="2" d="M1415.95 102.493c4.63 13.963 12.4 29.757 6.9 65.175 0 19.412 22.26-1.362 38.76 0 16.49 1.363 19.53 35.125 20.4 67.478.86 32.353 22.89 39.449 46.92 34 24.02-5.449-26.88-87.306-30.93-109.442-4.05-22.136 6.66-88.204-8.1-89.907-14.76-1.703-39.65 16.688-53.54 14.985-13.89-1.703-25.04 3.748-20.41 17.711Z" opacity=".5"/></g></svg>